<?xml version="1.0" standalone="no"?>
<!DOCTYPE svg PUBLIC "-//W3C//DTD SVG 20010904//EN"
 "http://www.w3.org/TR/2001/REC-SVG-20010904/DTD/svg10.dtd">
<svg version="1.0" xmlns="http://www.w3.org/2000/svg"
 width="300.000000pt" height="300.000000pt" viewBox="0 0 300.000000 300.000000"
 preserveAspectRatio="xMidYMid meet">
<metadata>
Created by potrace 1.10, written by Peter Selinger 2001-2011
</metadata>
<g transform="translate(0.000000,300.000000) scale(0.100000,-0.100000)"
fill="#000000" stroke="none">
<path d="M518 2268 c32 -40 71 -90 87 -111 l28 -38 266 7 c257 7 267 6 307
-14 91 -46 158 -155 159 -258 0 -50 -5 -69 -30 -109 -32 -52 -114 -115 -177
-136 -21 -7 -38 -16 -38 -20 0 -4 64 -88 143 -186 78 -99 207 -263 287 -366
140 -179 146 -186 181 -187 l36 0 -46 -116 c-33 -84 -54 -121 -74 -136 -37
-27 -50 -13 -14 16 30 24 34 36 13 36 -8 0 -26 -14 -39 -30 -32 -38 -38 -38
-24 0 10 25 9 33 -3 40 -24 15 -30 12 -41 -18 -11 -32 -69 -73 -69 -49 0 8 11
19 25 25 26 12 32 26 16 36 -14 9 -50 -27 -57 -58 -7 -28 -6 -29 25 -23 29 6
32 5 26 -13 -13 -42 13 -18 30 27 21 58 41 82 31 38 -4 -16 -8 -34 -9 -39 -3
-13 72 -17 94 -5 15 7 17 6 13 -6 -11 -28 11 -15 35 20 25 37 41 41 22 7 -16
-30 -14 -42 7 -42 21 0 79 56 69 66 -4 4 -16 -5 -28 -19 -29 -38 -42 -33 -25
8 18 41 4 56 -25 29 -20 -18 -20 -17 1 36 13 30 32 81 44 112 l21 58 97 0 98
0 -260 319 c-143 176 -264 323 -270 326 -17 11 -11 31 13 42 53 24 120 162
137 281 28 200 -65 376 -244 461 -117 56 -156 61 -544 61 l-352 0 58 -72z
m728 11 c144 -45 226 -105 274 -202 79 -162 53 -356 -69 -502 -22 -27 -41 -57
-41 -65 0 -17 87 -128 392 -501 43 -53 78 -101 78 -106 0 -14 -107 -22 -147
-11 -18 5 -33 12 -33 16 0 4 -12 21 -28 37 -15 17 -49 59 -77 95 -27 36 -108
139 -180 230 -196 247 -225 285 -225 297 0 5 27 27 59 47 103 63 151 142 151
248 0 77 -30 147 -91 213 -78 84 -82 85 -378 85 -143 0 -266 3 -275 6 -17 7
-96 108 -96 124 0 7 101 10 309 10 286 0 314 -2 377 -21z"/>
<path d="M1924 1782 l-309 -377 304 -373 305 -372 140 0 c131 0 138 1 124 18
-8 9 -127 154 -263 322 -137 168 -268 328 -291 355 l-41 50 303 370 c167 203
302 370 301 371 -1 1 -61 4 -133 8 l-131 6 -309 -378z m484 323 c6 -6 30 25
-244 -310 -304 -372 -294 -358 -294 -392 0 -21 22 -56 86 -133 47 -58 118
-145 159 -195 40 -49 123 -151 184 -225 61 -74 111 -139 111 -143 0 -4 -39 -6
-87 -5 l-88 3 -115 141 c-63 77 -184 226 -269 330 -85 104 -161 197 -169 206
-21 25 -54 -20 362 488 83 102 166 200 184 219 l33 34 71 -7 c40 -4 74 -9 76
-11z"/>
<path d="M660 1702 l0 -382 291 0 290 0 -64 83 c-35 45 -162 213 -282 372
-120 160 -222 294 -226 300 -5 5 -9 -160 -9 -373z m64 236 c10 -11 164 -215
372 -493 29 -38 50 -73 48 -77 -6 -9 -405 -11 -428 -2 -14 5 -16 41 -16 295 0
159 3 289 6 289 3 0 11 -6 18 -12z"/>
<path d="M1394 1033 c-83 -196 -234 -591 -234 -614 0 -18 19 -8 26 14 3 12 20
53 37 91 26 58 32 65 39 47 10 -29 34 -36 66 -20 15 7 34 14 43 15 9 0 21 4
28 8 15 10 14 2 -11 -68 -16 -46 -37 -78 -88 -131 -90 -94 -134 -185 -90 -185
27 0 91 76 128 154 39 79 44 84 94 107 49 22 66 24 213 24 88 0 179 -3 203 -8
25 -4 42 -3 42 2 0 17 -90 26 -245 25 -128 0 -158 -3 -202 -21 -29 -12 -53
-19 -53 -17 0 2 8 25 19 51 10 26 22 64 26 83 7 33 7 34 -11 19 -37 -32 -45
-32 -34 -3 16 40 5 40 -31 0 -46 -53 -67 -62 -78 -34 -7 18 -3 26 23 43 41 27
47 55 12 55 -16 0 -32 -9 -42 -25 -9 -14 -18 -24 -20 -22 -4 4 82 225 135 345
45 103 45 102 31 102 -5 0 -17 -17 -26 -37z m-89 -712 c-36 -69 -79 -120 -91
-108 -13 12 102 177 123 177 2 0 -12 -31 -32 -69z"/>
<path d="M823 905 c-6 -11 -31 -78 -57 -150 -43 -118 -51 -133 -87 -159 -22
-15 -42 -26 -45 -23 -3 3 2 20 12 39 9 18 19 27 21 21 6 -18 23 -16 23 2 0 24
-30 17 -67 -15 -44 -39 -55 -38 -38 4 10 22 11 37 5 41 -6 3 -14 -4 -19 -17
-5 -13 -16 -30 -25 -37 -13 -11 -16 -8 -22 28 -5 31 -11 41 -23 39 -10 -2 -15
-12 -13 -25 2 -12 -8 -44 -22 -72 -27 -53 -32 -71 -17 -71 5 0 20 26 34 58 14
31 26 49 26 38 1 -14 7 -17 26 -14 17 4 25 1 25 -9 0 -11 7 -13 25 -9 14 4 25
2 25 -4 0 -15 43 -12 68 6 20 14 22 14 22 0 0 -25 13 -18 38 20 24 37 42 41
23 6 -6 -12 -11 -25 -11 -30 0 -11 69 -14 84 -4 6 3 20 6 33 7 18 0 22 -3 17
-17 -3 -10 -1 -18 5 -18 5 0 17 22 26 50 17 50 45 86 31 39 -15 -48 -12 -53
26 -55 32 -2 41 2 63 29 32 41 31 34 -4 -44 -34 -76 -39 -93 -27 -97 5 -2 14
12 21 30 6 18 42 112 79 208 38 96 72 186 77 198 6 17 6 23 -2 20 -6 -2 -39
-66 -73 -143 -51 -116 -65 -139 -84 -140 -12 -1 -34 -12 -48 -26 l-25 -24 11
29 c8 21 7 32 -1 42 -15 18 -39 18 -39 0 0 -8 -12 -28 -26 -43 -25 -27 -26
-24 -8 25 6 14 4 15 -7 5 -7 -7 -21 -13 -31 -13 -11 0 -30 -12 -43 -27 -29
-34 -39 -27 -23 15 15 39 5 51 -24 26 -21 -19 -21 -19 -14 1 74 191 97 257 93
268 -2 7 -7 5 -14 -8z"/>
</g>
</svg>
